<?xml version="1.0" standalone="no"?>
<!DOCTYPE svg PUBLIC "-//W3C//DTD SVG 20010904//EN"
 "http://www.w3.org/TR/2001/REC-SVG-20010904/DTD/svg10.dtd">
<svg version="1.0" xmlns="http://www.w3.org/2000/svg"
 width="16.000000pt" height="16.000000pt" viewBox="0 0 16.000000 16.000000"
 preserveAspectRatio="xMidYMid meet">

<g transform="translate(0.000000,16.000000) scale(0.100000,-0.100000)"
fill="#000000" stroke="none">
<path d="M58 138 c-29 -29 -37 -54 -31 -92 5 -32 23 -52 23 -26 0 6 11 10 25
10 14 0 25 -4 25 -10 0 -26 18 -6 23 26 6 38 -2 63 -31 92 -16 16 -18 16 -34
0z m42 -23 c11 -13 7 -15 -25 -15 -32 0 -36 2 -25 15 7 8 18 15 25 15 7 0 18
-7 25 -15z m20 -40 c0 -11 -12 -15 -45 -15 -33 0 -45 4 -45 15 0 11 12 15 45
15 33 0 45 -4 45 -15z m-10 -32 c0 -5 -16 -8 -35 -8 -19 0 -35 3 -35 8 0 4 16
7 35 7 19 0 35 -3 35 -7z"/>
</g>
</svg>
